<?xml version="1.0" encoding="UTF-8"?>
<svg id="Vrstva_2" data-name="Vrstva 2" xmlns="http://www.w3.org/2000/svg" viewBox="0 0 208.4 33.63">
  <defs>
    <style>
      .cls-1, .cls-2 {
        fill: #e4eefa;
      }

      .cls-2 {
        fill-rule: evenodd;
      }
    </style>
  </defs>
  <g id="Vrstva_1-2" data-name="Vrstva 1">
    <g>
      <path class="cls-2" d="M13.2,24.6c1.1-1.1,1.1-2.89,0-3.99s-2.89-1.1-3.99,0-1.1,2.89,0,3.99,2.89,1.1,3.99,0h0Z"/>
      <path class="cls-2" d="M24.04,22.31c-.54.08-1.08.12-1.62.12,0,3.09-1.25,5.9-3.28,7.93-.95.95-2.04,1.7-3.21,2.24-.05.02-.1.05-.16.07-.09.04-.17.08-.26.11-.15.06-.3.12-.46.18-.17.06-.35.12-.52.18-.18.05-.35.11-.53.15-.18.04-.36.09-.54.12-.18.04-.37.07-.55.1-.09.02-.19.03-.28.04-.09.01-.19.02-.28.03-.38.04-.76.06-1.15.06-.1,0-.19,0-.29,0-.29,0-.57-.03-.86-.05-.19-.02-.38-.04-.56-.07-.09-.01-.18-.03-.28-.05-.08-.01-.16-.03-.25-.05-.03,0-.05-.01-.07-.02-.08-.02-.15-.03-.23-.05-.1-.02-.19-.05-.29-.07-.11-.03-.21-.06-.32-.09-.12-.03-.25-.07-.37-.11-.23-.08-.46-.16-.68-.25-.11-.05-.23-.09-.34-.14-.33-.15-.66-.31-.99-.5-3.4-1.93-5.69-5.58-5.69-9.76V0h22.43c6.19,0,11.21,5.02,11.21,11.21,0,5.65-4.17,10.31-9.59,11.1ZM11.2,29.37c3.84,0,6.95-3.11,6.95-6.95s-3.11-6.95-6.95-6.95-6.95,3.11-6.95,6.95,3.11,6.95,6.95,6.95ZM22.43,3.91H3.92v9.98c1.96-1.68,4.5-2.69,7.28-2.69h.04c.12,0,.24,0,.36,0,.06,0,.12,0,.18,0,.19,0,.38.02.57.04.1.01.19.02.28.03.09.01.19.02.28.04.18.03.37.06.55.1.11.02.21.05.32.07.07.02.13.03.2.05.13.03.26.07.39.11.02,0,.04.01.05.02,2.8.83,5.15,2.73,6.56,5.22.29.51.54,1.05.75,1.61.57,0,1.11.01,1.68-.07,3.56-.48,6.31-3.53,6.31-7.23,0-4.03-3.26-7.3-7.3-7.3Z"/>
    </g>
    <g>
      <path class="cls-1" d="M47.72,33.63c-1.7,0-3.2-.37-4.5-1.1-1.3-.73-2.32-1.74-3.06-3.03-.74-1.29-1.11-2.77-1.11-4.44,0-1.24.22-2.38.65-3.42.43-1.04,1.05-1.94,1.84-2.7.79-.76,1.73-1.36,2.81-1.78,1.08-.42,2.25-.64,3.53-.64,1.16,0,2.29.22,3.39.67,1.09.45,2.01,1.1,2.75,1.95l-2.6,2.95c-.44-.5-.96-.9-1.55-1.2-.59-.3-1.26-.45-2.02-.45-.83,0-1.59.19-2.25.57-.67.38-1.2.92-1.6,1.62-.4.7-.6,1.53-.6,2.49,0,1.4.44,2.52,1.32,3.35.88.83,2.05,1.25,3.49,1.25.72,0,1.4-.15,2.04-.45.64-.3,1.17-.68,1.59-1.16l2.05,3.23c-.39.44-.92.83-1.58,1.18-.66.35-1.39.62-2.18.81-.79.2-1.6.3-2.42.3Z"/>
      <path class="cls-1" d="M54.35,33.4l6.56-16.52h3.54l6.49,16.52h-4.27l-1.11-3h-5.92l-1.11,3h-4.18ZM61.53,25.3l-.73,1.96h3.61l-.75-2.01c-.17-.5-.35-1.02-.53-1.53-.18-.52-.35-1.05-.51-1.58-.16.52-.32,1.03-.5,1.53-.17.5-.37,1.05-.59,1.63Z"/>
      <path class="cls-1" d="M72.85,33.4v-16.52h7.51c1.09,0,2.06.23,2.92.68.86.46,1.53,1.08,2.03,1.88.5.79.74,1.7.74,2.7,0,1.12-.27,2.1-.81,2.96-.54.86-1.27,1.51-2.18,1.97l3.68,6.33h-4.84l-3.23-5.74h-1.77v5.74h-4.04ZM76.89,24.48h3.02c.61,0,1.09-.19,1.44-.57.35-.38.52-.88.52-1.51s-.2-1.11-.59-1.48c-.39-.37-.94-.55-1.65-.55h-2.74v4.11Z"/>
      <path class="cls-1" d="M97.16,33.4v-16.52h7.36c1.73,0,3.05.36,3.97,1.07.91.72,1.37,1.7,1.37,2.96,0,1.7-.68,2.86-2.03,3.47.88.33,1.59.84,2.11,1.52s.79,1.51.79,2.47c0,1.12-.26,2.05-.77,2.8-.51.75-1.22,1.31-2.12,1.68-.91.37-1.93.55-3.08.55h-7.6ZM101.15,23.46h2.74c.61,0,1.07-.14,1.38-.41.31-.28.46-.65.46-1.12s-.16-.87-.47-1.14c-.31-.28-.81-.41-1.49-.41h-2.62v3.09ZM101.15,29.9h3.47c.61,0,1.09-.15,1.43-.45.34-.3.51-.73.51-1.3,0-.5-.18-.9-.54-1.18-.36-.28-.87-.42-1.51-.42h-3.35v3.35Z"/>
      <path class="cls-1" d="M111.63,33.4l6.56-16.52h3.54l6.49,16.52h-4.27l-1.11-3h-5.92l-1.11,3h-4.18ZM118.81,25.3l-.73,1.96h3.61l-.75-2.01c-.17-.5-.35-1.02-.53-1.53-.18-.52-.35-1.05-.51-1.58-.16.52-.32,1.03-.5,1.53-.17.5-.37,1.05-.59,1.63Z"/>
      <path class="cls-1" d="M130.13,33.4v-16.52h4.25v12.82h7.29v3.71h-11.54Z"/>
      <path class="cls-1" d="M142.38,33.4l6.56-16.52h3.54l6.49,16.52h-4.27l-1.11-3h-5.92l-1.11,3h-4.18ZM149.56,25.3l-.73,1.96h3.61l-.75-2.01c-.17-.5-.35-1.02-.53-1.53-.18-.52-.35-1.05-.51-1.58-.16.52-.32,1.03-.5,1.53-.17.5-.37,1.05-.59,1.63Z"/>
      <path class="cls-1" d="M160.89,33.4v-16.52h3.8l7.43,10.15c-.08-.69-.15-1.34-.2-1.95-.06-.61-.09-1.25-.11-1.95-.02-.69-.02-1.49-.02-2.41v-3.85h4.13v16.52h-3.85l-7.34-9.94c.08.69.14,1.27.18,1.75.04.47.07.93.08,1.37.02.44.02.95.02,1.53v5.29h-4.13Z"/>
      <path class="cls-1" d="M187.63,33.63c-1.7,0-3.2-.37-4.5-1.1-1.3-.73-2.32-1.74-3.06-3.03-.74-1.29-1.11-2.77-1.11-4.44,0-1.24.22-2.38.65-3.42.43-1.04,1.05-1.94,1.84-2.7.79-.76,1.73-1.36,2.81-1.78,1.08-.42,2.25-.64,3.53-.64,1.16,0,2.29.22,3.39.67,1.09.45,2.01,1.1,2.75,1.95l-2.6,2.95c-.44-.5-.96-.9-1.55-1.2-.59-.3-1.26-.45-2.02-.45-.83,0-1.59.19-2.25.57-.67.38-1.2.92-1.6,1.62-.4.7-.6,1.53-.6,2.49,0,1.4.44,2.52,1.32,3.35.88.83,2.05,1.25,3.49,1.25.72,0,1.4-.15,2.04-.45.64-.3,1.17-.68,1.59-1.16l2.05,3.23c-.39.44-.92.83-1.58,1.18-.66.35-1.39.62-2.18.81-.79.2-1.6.3-2.42.3Z"/>
      <path class="cls-1" d="M196.41,33.4v-16.52h11.71v3.56h-7.6v2.86h6.59v3.4h-6.59v3.14h7.88v3.56h-11.99Z"/>
    </g>
  </g>
</svg>